<?xml version="1.0" encoding="UTF-8" standalone="no"?>
<svg
   xmlns:dc="http://purl.org/dc/elements/1.1/"
   xmlns:cc="http://creativecommons.org/ns#"
   xmlns:rdf="http://www.w3.org/1999/02/22-rdf-syntax-ns#"
   xmlns:svg="http://www.w3.org/2000/svg"
   xmlns="http://www.w3.org/2000/svg"
   viewBox="0 0 390.72 269.44"
   height="269.44"
   width="390.72"
   xml:space="preserve"
   id="svg2"
   version="1.1"><metadata
     id="metadata8"><rdf:RDF><cc:Work
         rdf:about=""><dc:format>image/svg+xml</dc:format><dc:type
           rdf:resource="http://purl.org/dc/dcmitype/StillImage" /></cc:Work></rdf:RDF></metadata><defs
     id="defs6"><clipPath
       id="clipPath18"
       clipPathUnits="userSpaceOnUse"><path
         style="clip-rule:evenodd"
         id="path16"
         d="M 0,0 H 1220.8334 V 840.81903 H 0 Z" /></clipPath><clipPath
       id="clipPath30"
       clipPathUnits="userSpaceOnUse"><path
         style="clip-rule:evenodd"
         id="path28"
         d="M 0,0 H 1220.8334 V 837.82678 H 0 Z" /></clipPath></defs><g
     transform="matrix(0.31999998,0,0,0.31999998,0,6.736e-6)"
     id="g10"><g
       id="g12"><g
         clip-path="url(#clipPath18)"
         id="g14"><g
           transform="scale(2.9922385)"
           id="g20"><path
             id="path22"
             style="fill:#ffffff;fill-opacity:1;fill-rule:nonzero;stroke:none"
             d="M 0,0 H 408 V 281 H 0 Z" /></g></g></g><g
       id="g24"><g
         clip-path="url(#clipPath30)"
         id="g26"><g
           transform="matrix(2.9922385,0,0,2.9922385,1.4961193,1.4961193)"
           id="g32"><path
             id="path34"
             style="fill:none;stroke:#000000;stroke-width:1;stroke-linecap:butt;stroke-linejoin:miter;stroke-miterlimit:10;stroke-dasharray:none;stroke-opacity:1"
             d="M 38,248 V 14.37" /><path
             id="path36"
             style="fill:#000000;fill-opacity:1;fill-rule:nonzero;stroke:none"
             d="M 38,9.1199999 41.5,16.120001 38,14.37 34.5,16.120001 Z" /><path
             id="path38"
             style="fill:none;stroke:#000000;stroke-width:1;stroke-linecap:butt;stroke-linejoin:miter;stroke-miterlimit:10;stroke-dasharray:none;stroke-opacity:1"
             d="M 38,9.1199999 41.5,16.120001 38,14.37 34.5,16.120001 Z" /><path
             id="path40"
             style="fill:none;stroke:#000000;stroke-width:1;stroke-linecap:butt;stroke-linejoin:miter;stroke-miterlimit:10;stroke-dasharray:none;stroke-opacity:1"
             d="M 38,248 H 391.63" /><path
             id="path42"
             style="fill:#000000;fill-opacity:1;fill-rule:nonzero;stroke:none"
             d="m 396.88,248 -7,3.5 1.75,-3.5 -1.75,-3.5 z" /><path
             id="path44"
             style="fill:none;stroke:#000000;stroke-width:1;stroke-linecap:butt;stroke-linejoin:miter;stroke-miterlimit:10;stroke-dasharray:none;stroke-opacity:1"
             d="m 396.88,248 -7,3.5 1.75,-3.5 -1.75,-3.5 z" /></g><g
           transform="scale(2.9922385)"
           id="g46"><path
             id="path48"
             style="fill:none;stroke:#0000ff;stroke-width:1;stroke-linecap:butt;stroke-linejoin:miter;stroke-miterlimit:10;stroke-dasharray:none;stroke-opacity:1"
             d="m 42,202 c 44,-42.66667 81,-55.66667 111,-39 30,16.66667 50,11.66667 60,-15 10,-26.66667 23.33333,-45 40,-55 16.66666,-10 30,-15 40,-15 10,0 23.33334,3.333336 40,10 16.66666,6.666664 31.66666,20 45,40" /><path
             id="path50"
             style="fill:#0000ff;fill-opacity:1;fill-rule:nonzero;stroke:none"
             d="m 397.29291,148.70711 -4.24265,-4.24265 1.41419,-1.41421 4.24264,4.24264 m -9.89947,-7.07106 -4.24265,-4.24264 1.41419,-1.41422 4.24264,4.24265 m -9.89944,-7.07108 -3.02945,-3.02943 1.41418,-1.41422 3.02945,3.02944" /><path
             id="path52"
             style="fill:#cc0000;fill-opacity:1;fill-rule:nonzero;stroke:none"
             d="m 398,99 h -6 v -2 h 6 m -12,2 h -6 v -2 h 6" /></g><g
           transform="matrix(2.9922385,0,0,2.9922385,1.4961193,1.4961193)"
           id="g54"><path
             id="path56"
             style="fill:#00cc00;fill-opacity:1;fill-rule:nonzero;stroke:none"
             d="m 122.5,191.59 v -3 h 1 v 3 m -1,-6 v -3 h 1 v 3 m -1,-6 v -3 h 1 v 3" /></g><g
           transform="matrix(2.1158321,-2.1158321,2.1158321,2.1158321,-299.06149,430.88989)"
           id="g58"><path
             id="path60"
             style="fill:#00cc00;fill-opacity:1;fill-rule:nonzero;stroke:none"
             d="m 118,192 h 4 v -4 h 2 v 4 h 4 v 2 h -4 v 4 h -2 v -4 h -4 z" /></g><g
           transform="matrix(2.9922385,0,0,2.9922385,1.4961193,1.4961193)"
           id="g62"><path
             id="path64"
             style="fill:#00cc00;fill-opacity:1;fill-rule:nonzero;stroke:none"
             d="m 173.5,174.4091 0.005,3 -1,0.002 -0.005,-3" /></g><g
           transform="matrix(2.1158321,-2.1158321,2.1158321,2.1158321,-212.92453,519.15338)"
           id="g66"><path
             id="path68"
             style="fill:#00cc00;fill-opacity:1;fill-rule:nonzero;stroke:none"
             d="m 168,172 h 4 v -4 h 2 v 4 h 4 v 2 h -4 v 4 h -2 v -4 h -4 z" /></g><g
           transform="matrix(2.9922385,0,0,2.9922385,1.4961193,1.4961193)"
           id="g70"><path
             id="path72"
             style="fill:#00cc00;fill-opacity:1;fill-rule:nonzero;stroke:none"
             d="m 232.5,181.5907 -0.004,-3 1,-0.001 0.004,3 m -1.00839,-5.99859 -0.004,-2.99999 1,-10e-4 0.004,2.99998 m -1.00839,-5.99858 -0.004,-3 1,-0.001 0.004,3 m -1.0084,-5.9986 -0.004,-3 1,-10e-4 0.004,3 m -1.00839,-5.99858 -0.004,-3 1,-0.001 0.004,3" /></g><g
           transform="matrix(2.1158321,-2.1158321,2.1158321,2.1158321,-181.49847,654.86737)"
           id="g74"><path
             id="path76"
             style="fill:#00cc00;fill-opacity:1;fill-rule:nonzero;stroke:none"
             d="m 228,182 h 4 v -4 h 2 v 4 h 4 v 2 h -4 v 4 h -2 v -4 h -4 z" /></g><g
           transform="matrix(2.9922385,0,0,2.9922385,1.4961193,1.4961193)"
           id="g78"><path
             id="path80"
             style="fill:#00cc00;fill-opacity:1;fill-rule:nonzero;stroke:none"
             d="m 263.5,71.410004 v 3 h -1 v -3 z m 0,6 v 3 h -1 v -3 z m 0,6 V 85 86.410004 h -1 V 85 83.410004 Z m 0,6 v 3 h -1 v -3 z m 0,6 v 3 h -1 v -3 z m 0,5.999996 v 3 h -1 v -3 z m 0,6 v 3 h -1 v -3 z m 0,6 v 3 h -1 v -3 z m 0,6 v 3 h -1 v -3 z m 0,6 v 3 h -1 v -3 z m 0,6 v 3 h -1 v -3 z" /></g><g
           transform="matrix(2.1158321,-2.1158321,2.1158321,2.1158321,77.535248,621.93768)"
           id="g82"><path
             id="path84"
             style="fill:#00cc00;fill-opacity:1;fill-rule:nonzero;stroke:none"
             d="m 258,72 h 4 v -4 h 2 v 4 h 4 v 2 h -4 v 4 h -2 v -4 h -4 z" /></g><g
           transform="matrix(2.9922385,0,0,2.9922385,1.4961193,1.4961193)"
           id="g86"><path
             id="path88"
             style="fill:#00cc00;fill-opacity:1;fill-rule:nonzero;stroke:none"
             d="m 292.5,174.59 v -3 h 1 v 3 m -1,-6 v -3 h 1 v 3 m -1,-6 v -3 h 1 v 3 m -1,-6 v -3 h 1 v 3 m -1,-6 v -3 h 1 v 3 m -1,-6 v -3 h 1 v 3 m -1,-6 v -3 h 1 v 3 m -1,-6 v -3 h 1 v 3 m -1,-6 v -3 h 1 v 3" /></g><g
           transform="matrix(2.1158321,-2.1158321,2.1158321,2.1158321,-107.75577,773.05322)"
           id="g90"><path
             id="path92"
             style="fill:#00cc00;fill-opacity:1;fill-rule:nonzero;stroke:none"
             d="m 288,172 h 4 v -4 h 2 v 4 h 4 v 2 h -4 v 4 h -2 v -4 h -4 z" /></g><g
           transform="matrix(2.9922385,0,0,2.9922385,1.4961193,1.4961193)"
           id="g94"><path
             id="path96"
             style="fill:#00cc00;fill-opacity:1;fill-rule:nonzero;stroke:none"
             d="m 353.5,84.411026 -0.006,2.999992 -1,-0.002 0.006,-2.999993 m 0.98773,6.00203 -0.006,3 -1,-0.002 0.006,-3 m 0.98776,6.002037 -0.006,2.999992 -1,-0.002 0.006,-2.999993 m 0.98774,6.002029 -0.003,1.59003 -1,-0.002 0.003,-1.59004" /></g><g
           transform="matrix(2.1158321,-2.1158321,2.1158321,2.1158321,135.25349,821.12659)"
           id="g98"><path
             id="path100"
             style="fill:#00cc00;fill-opacity:1;fill-rule:nonzero;stroke:none"
             d="m 348,82 h 4 v -4 h 2 v 4 h 4 v 2 h -4 v 4 h -2 v -4 h -4 z" /></g><g
           transform="scale(2.9922385)"
           id="g102"><path
             id="path104"
             style="fill:none;stroke:#cc0000;stroke-width:1;stroke-linecap:butt;stroke-linejoin:miter;stroke-miterlimit:10;stroke-dasharray:none;stroke-opacity:1"
             d="M 41.540001,179.46001 C 85.846664,171.82001 121.33333,171.33333 148,178 c 26.66667,6.66667 55,-1.66667 85,-25 30,-23.33333 78.33331,-41.66666 145,-55" /></g><g
           transform="matrix(2.9922385,0,0,2.9922385,1.4961193,1.4961193)"
           id="g106"><path
             id="path108"
             style="fill:none;stroke:#0000ff;stroke-width:1;stroke-linecap:butt;stroke-linejoin:miter;stroke-miterlimit:10;stroke-dasharray:none;stroke-opacity:1"
             d="m 42,198 0.16,-11.67" /><path
             id="path110"
             style="fill:#0000ff;fill-opacity:1;fill-rule:nonzero;stroke:none"
             d="m 42.189999,184.08 1.460003,3.02001 L 42.16,186.33 l -1.509998,0.73 z" /><path
             id="path112"
             style="fill:none;stroke:#0000ff;stroke-width:1;stroke-linecap:butt;stroke-linejoin:miter;stroke-miterlimit:10;stroke-dasharray:none;stroke-opacity:1"
             d="m 42.189999,184.08 1.460003,3.02001 L 42.16,186.33 l -1.509998,0.73 z" /></g><g
           transform="matrix(2.1158321,-2.1158321,2.1158321,2.1158321,-340.42877,247.23782)"
           id="g114"><path
             id="path116"
             style="fill:#cc0000;fill-opacity:1;fill-rule:nonzero;stroke:none"
             d="m 37,178 h 4 v -4 h 2 v 4 h 4 v 2 h -4 v 4 h -2 v -4 h -4 z" /></g><g
           transform="matrix(2.1158321,-2.1158321,2.1158321,2.1158321,-105.61153,178.40576)"
           id="g118"><path
             id="path120"
             style="fill:#00cc00;fill-opacity:1;fill-rule:nonzero;stroke:none"
             d="m 47.970001,71.739998 h 4.469998 v -4.14 H 54.5 v 4.14 h 4.470001 v 2.07 H 54.5 v 4.139999 h -2.060001 v -4.139999 h -4.469998 z" /></g><g
           transform="matrix(0,-2.9922385,2.9922385,0,-320.16953,445.84354)"
           id="g122"><text
             id="text126"
             style="font-variant:normal;font-weight:bold;font-size:15px;font-family:Arial;-inkscape-font-specification:Arial-BoldMT;writing-mode:lr-tb;fill:#000000;fill-opacity:1;fill-rule:nonzero;stroke:none"
             transform="translate(3.15625,134)"><tspan
               id="tspan124"
               y="0"
               x="0 10.004883 15 23.342285 28.337402">State</tspan></text>
</g><g
           transform="scale(2.9922385)"
           id="g128"><text
             id="text132"
             style="font-variant:normal;font-weight:bold;font-size:15px;font-family:Arial;-inkscape-font-specification:Arial-BoldMT;writing-mode:lr-tb;fill:#000000;fill-opacity:1;fill-rule:nonzero;stroke:none"
             transform="translate(201.125,269)"><tspan
               id="tspan130"
               y="0"
               x="0 8.8916016 13.059082 26.396484">Time</tspan></text>
<path
             id="path134"
             style="fill:none;stroke:#cc0000;stroke-width:1;stroke-linecap:butt;stroke-linejoin:miter;stroke-miterlimit:10;stroke-dasharray:none;stroke-opacity:1"
             d="M 48,58 H 58" /><path
             id="path136"
             style="fill:none;stroke:#0000ff;stroke-width:1;stroke-linecap:butt;stroke-linejoin:miter;stroke-miterlimit:10;stroke-dasharray:none;stroke-opacity:1"
             d="M 48,43 H 58" /><text
             id="text140"
             style="font-variant:normal;font-weight:normal;font-size:10px;font-family:ArialMT;-inkscape-font-specification:ArialMT;writing-mode:lr-tb;fill:#0000ff;fill-opacity:1;fill-rule:nonzero;stroke:none"
             transform="translate(71,47)"><tspan
               id="tspan138"
               y="0"
               x="0 6.6699219 10 12.22168 17.783203 21.113281 23.891602 26.669922 30 35.561523 37.783203 43.344727 48.344727 51.123047 56.68457 60.014648">Prior trajectory</tspan></text>
<text
             id="text144"
             style="font-variant:normal;font-weight:normal;font-size:10px;font-family:ArialMT;-inkscape-font-specification:ArialMT;writing-mode:lr-tb;fill:#cc0000;fill-opacity:1;fill-rule:nonzero;stroke:none"
             transform="translate(70.640625,62)"><tspan
               id="tspan142"
               y="0"
               x="0 7.2216797 12.783203 18.344727 23.90625 26.68457 32.246094 37.807617 40.585938 43.364258 46.694336 52.255859 54.477539 60.039062 65.039062 67.817383 73.378906 76.708984">Updated trajectory</tspan></text>
<text
             id="text148"
             style="font-variant:normal;font-weight:normal;font-size:10px;font-family:ArialMT;-inkscape-font-specification:ArialMT;writing-mode:lr-tb;fill:#00cc00;fill-opacity:1;fill-rule:nonzero;stroke:none"
             transform="translate(70.546875,77)"><tspan
               id="tspan146"
               y="0"
               x="0 7.7783203 13.339844 18.339844 23.901367 27.231445 32.231445 37.792969 40.571289 42.792969 48.354492">Observation</tspan></text>
</g></g></g></g></svg>